<?xml version="1.0" standalone="no"?>
<!DOCTYPE svg PUBLIC "-//W3C//DTD SVG 20010904//EN"
 "http://www.w3.org/TR/2001/REC-SVG-20010904/DTD/svg10.dtd">
<svg version="1.0" xmlns="http://www.w3.org/2000/svg"
 width="512.000000pt" height="512.000000pt" viewBox="0 0 512.000000 512.000000"
 preserveAspectRatio="xMidYMid meet">
<metadata>
Created by potrace 1.14, written by Peter Selinger 2001-2017
</metadata>
<g transform="translate(0.000000,512.000000) scale(0.100000,-0.100000)"
fill="#000000" stroke="none">
<path d="M0 2560 l0 -2560 2560 0 2560 0 0 2560 0 2560 -2560 0 -2560 0 0
-2560z m1053 1365 c26 -12 86 -102 324 -483 161 -257 299 -476 306 -486 12
-16 46 35 318 469 266 428 308 490 338 502 27 11 71 14 194 11 l159 -3 29 -33
c39 -44 39 -90 0 -134 -29 -32 -30 -32 -135 -36 l-106 -4 0 -579 0 -579 96 0
c52 0 105 -5 117 -11 63 -32 77 -111 28 -160 l-29 -29 -242 0 c-146 0 -249 4
-261 10 -22 13 -49 61 -49 90 0 54 43 94 110 102 l25 3 3 450 c2 380 0 447
-11 435 -8 -8 -119 -184 -247 -390 -128 -206 -245 -387 -261 -402 -21 -20 -40
-28 -64 -28 -24 0 -44 8 -64 28 -16 15 -138 201 -271 415 -133 213 -243 387
-246 387 -2 0 -4 -202 -4 -450 l0 -450 34 0 c69 0 126 -83 96 -141 -30 -58
-34 -59 -298 -59 l-244 0 -29 29 c-21 22 -29 39 -29 66 0 81 39 105 175 105
l95 0 0 580 0 580 -79 0 c-103 0 -136 7 -166 38 -35 35 -35 99 1 135 32 33 40
34 212 36 109 1 152 -3 175 -14z m3412 -819 c33 -14 65 -59 65 -91 0 -9 -7
-30 -16 -46 -30 -60 -24 -59 -703 -59 -362 0 -630 4 -644 9 -43 17 -67 51 -67
95 1 47 14 69 56 91 42 22 1256 23 1309 1z m24 -562 c52 -44 51 -113 -3 -156
-19 -16 -70 -18 -674 -18 l-654 0 -29 29 c-31 31 -39 83 -19 121 27 50 21 49
707 50 l641 0 31 -26z m-3 -542 c54 -43 55 -112 3 -156 l-31 -26 -1459 0
c-1574 0 -1501 -2 -1529 49 -20 39 -12 91 19 122 l29 29 1474 0 c1381 0 1474
-2 1494 -18z m-21 -536 c33 -14 65 -59 65 -91 0 -32 -32 -77 -65 -91 -29 -12
-251 -14 -1463 -14 -786 0 -1443 3 -1461 6 -49 10 -81 49 -81 98 1 47 14 69
56 91 26 13 202 15 1472 15 1224 0 1448 -2 1477 -14z"/>
</g>
</svg>
